<svg width="48" height="48" viewBox="0 0 48 48" fill="none" xmlns="http://www.w3.org/2000/svg">
<g clip-path="url(#clip0_357_574)">
<path d="M48 24C48 10.7452 37.2548 0 24 0C10.7452 0 0 10.7452 0 24C0 37.2548 10.7452 48 24 48C37.2548 48 48 37.2548 48 24Z" fill="url(#paint0_linear_357_574)"/>
<path d="M25.6789 26.4741H10.8778C9.83947 26.4741 9 27.3135 9 28.3518C9 29.3901 9.83947 30.2296 10.8778 30.2296H27.9323C27.9323 30.2296 28.8159 29.3459 27.866 27.91C26.894 26.4741 25.6789 26.4741 25.6789 26.4741Z" fill="white"/>
<path d="M24.9278 10.6786L15.7379 26.5843C15.2298 27.4901 15.5169 28.6388 16.4227 29.1469C17.3284 29.655 18.4772 29.3678 18.9853 28.4621L28.1753 12.5563C28.6834 11.6506 28.3962 10.5018 27.4904 9.99375C26.5847 9.46356 25.4359 9.77284 24.9278 10.6786ZM36.1723 33.4106L26.7393 17.0409C26.7393 17.0409 25.3697 18.1013 25.3697 20.2C25.3697 22.2986 26.2312 23.7125 26.2312 23.7125L32.9249 35.3104C33.433 36.2162 34.5817 36.5254 35.4875 35.9952C36.3711 35.465 36.6804 34.3163 36.1723 33.4106Z" fill="white"/>
<path d="M37.1208 26.474H31.8852C30.8469 26.474 30.0074 27.3134 30.0074 28.3517C30.0074 29.39 30.8469 30.2295 31.8852 30.2295H37.1208C38.1591 30.2295 38.9986 29.39 38.9986 28.3517C38.9986 27.3355 38.1591 26.474 37.1208 26.474ZM25.0369 14.1249L23.0487 10.6566C22.5406 9.77297 21.3697 9.46369 20.4861 9.97179C19.6024 10.4799 19.2932 11.6507 19.8013 12.5344L21.7895 16.0027C22.2976 16.8863 23.4684 17.1956 24.3521 16.6875C25.2357 16.1794 25.545 15.0307 25.0369 14.1249ZM11.8042 33.3886L12.9971 31.3341C12.9971 31.3341 13.2843 30.7597 14.411 30.7597C15.6039 30.7597 16.7526 31.7539 16.841 32.1294L15.0516 35.2664C14.5435 36.1721 13.3948 36.4814 12.489 35.9512C11.5833 35.4431 11.2961 34.2944 11.8042 33.3886Z" fill="white"/>
</g>
<defs>
<linearGradient id="paint0_linear_357_574" x1="23.996" y1="47.991" x2="23.996" y2="0" gradientUnits="userSpaceOnUse">
<stop stop-color="#4780E8"/>
<stop offset="1" stop-color="#11C8F6"/>
</linearGradient>
<clipPath id="clip0_357_574">
<rect width="48" height="48" fill="white"/>
</clipPath>
</defs>
</svg>
