<svg width="64" height="64" viewBox="0 0 64 64" fill="none" xmlns="http://www.w3.org/2000/svg">
<path d="M9.23049 44.45C8.82693 44.4587 8.43019 44.345 8.09242 44.124C7.75466 43.903 7.49167 43.585 7.33803 43.2117C7.1844 42.8384 7.1473 42.4274 7.23163 42.0327C7.31595 41.6379 7.51775 41.2779 7.81049 41L13.4905 35.32C13.6763 35.1342 13.8969 34.9868 14.1397 34.8862C14.3825 34.7856 14.6427 34.7339 14.9055 34.7339C15.1683 34.7339 15.4285 34.7856 15.6713 34.8862C15.9141 34.9868 16.1347 35.1342 16.3205 35.32C16.5063 35.5058 16.6537 35.7264 16.7543 35.9692C16.8548 36.212 16.9066 36.4722 16.9066 36.735C16.9066 36.9978 16.8548 37.258 16.7543 37.5008C16.6537 37.7436 16.5063 37.9642 16.3205 38.15L10.6405 43.83C10.4581 44.0214 10.2396 44.1748 9.99757 44.2812C9.75555 44.3876 9.49483 44.445 9.23049 44.45ZM22.2305 56.45C21.8269 56.4587 21.4302 56.345 21.0924 56.124C20.7547 55.903 20.4917 55.585 20.338 55.2117C20.1844 54.8384 20.1473 54.4274 20.2316 54.0327C20.316 53.6379 20.5177 53.2779 20.8105 53L24.4905 49.32C24.8658 48.9447 25.3748 48.7339 25.9055 48.7339C26.4362 48.7339 26.9452 48.9447 27.3205 49.32C27.6958 49.6953 27.9066 50.2043 27.9066 50.735C27.9066 51.2657 27.6958 51.7747 27.3205 52.15L23.6405 55.83C23.4581 56.0214 23.2396 56.1748 22.9976 56.2812C22.7555 56.3876 22.4948 56.445 22.2305 56.45ZM15.5205 50.74C15.1253 50.7403 14.7389 50.6235 14.41 50.4044C14.0811 50.1853 13.8245 49.8737 13.6726 49.5088C13.5207 49.144 13.4802 48.7424 13.5564 48.3546C13.6325 47.9668 13.8219 47.6103 14.1005 47.33L22.8805 38.55C23.2615 38.2059 23.7603 38.0216 24.2736 38.0351C24.7868 38.0487 25.2751 38.259 25.6375 38.6227C25.9999 38.9864 26.2086 39.4755 26.2203 39.9888C26.232 40.502 26.0459 41.0002 25.7005 41.38L16.9305 50.16C16.5555 50.5319 16.0486 50.7404 15.5205 50.74Z" fill="#555555"/>
<path d="M27.77 63C27.2404 62.9978 26.7334 62.7856 26.36 62.41L1.59 37.64C1.21441 37.2667 1.00223 36.7596 1 36.23C0.999792 35.9661 1.05182 35.7048 1.15308 35.461C1.25434 35.2173 1.40283 34.9961 1.59 34.81L17.07 19.33C17.4453 18.9547 17.9543 18.7439 18.485 18.7439C19.0157 18.7439 19.5247 18.9547 19.9 19.33C20.2753 19.7053 20.4861 20.2143 20.4861 20.745C20.4861 21.2757 20.2753 21.7847 19.9 22.16L5.83 36.23L27.77 58.17L41.84 44.1C42.2153 43.7247 42.7243 43.5139 43.255 43.5139C43.7857 43.5139 44.2947 43.7247 44.67 44.1C45.0453 44.4753 45.2561 44.9843 45.2561 45.515C45.2561 46.0457 45.0453 46.5547 44.67 46.93L29.19 62.41C29.0039 62.5972 28.7827 62.7457 28.539 62.8469C28.2953 62.9482 28.0339 63.0002 27.77 63Z" fill="#256EF4"/>
<path d="M43.2609 47.5199C42.997 47.5201 42.7357 47.4681 42.492 47.3668C42.2483 47.2656 42.027 47.1171 41.8409 46.9299L17.0709 22.1599C16.885 21.9742 16.7375 21.7536 16.6368 21.5108C16.5362 21.268 16.4844 21.0078 16.4844 20.7449C16.4844 20.4821 16.5362 20.2218 16.6368 19.979C16.7375 19.7362 16.885 19.5157 17.0709 19.3299L22.4109 13.9999C23.5602 12.8531 25.1174 12.209 26.7409 12.209C28.3645 12.209 29.9217 12.8531 31.0709 13.9999L36.0009 18.8699L50.2109 2.99992C50.7692 2.38253 51.4475 1.88549 52.2043 1.5392C52.9612 1.19291 53.7808 1.00464 54.6129 0.985923C55.445 0.967203 56.2722 1.11842 57.0439 1.43032C57.8156 1.74222 58.5155 2.20826 59.1009 2.79992L61.2109 4.89992C61.8007 5.48673 62.2648 6.18744 62.575 6.95937C62.8853 7.73131 63.0351 8.55832 63.0155 9.39003C62.9958 10.2217 62.8071 11.0407 62.4608 11.7972C62.1144 12.5536 61.6177 13.2316 61.0009 13.7899L45.1309 28.0499L50.0009 32.9299C51.1478 34.0791 51.7918 35.6364 51.7918 37.2599C51.7918 38.8835 51.1478 40.4407 50.0009 41.5899L44.6609 46.9299C44.2901 47.3031 43.7871 47.5151 43.2609 47.5199ZM21.3109 20.7399L43.3109 42.7399L47.2309 38.8099C47.6267 38.411 47.8487 37.8718 47.8487 37.3099C47.8487 36.748 47.6267 36.2089 47.2309 35.8099L40.8609 29.4399C40.6689 29.2492 40.5176 29.0214 40.4162 28.7704C40.3148 28.5195 40.2654 28.2505 40.2709 27.9799C40.2784 27.7069 40.3416 27.4382 40.4569 27.1906C40.5721 26.9429 40.7369 26.7215 40.9409 26.5399L58.341 10.8699C58.5558 10.6677 58.7256 10.4225 58.8393 10.1502C58.953 9.87801 59.0081 9.58487 59.0009 9.28992C59.0081 9.00153 58.9568 8.71467 58.8503 8.44659C58.7438 8.17851 58.5841 7.93473 58.381 7.72992L56.271 5.61992C56.0667 5.41686 55.8234 5.25733 55.5558 5.15097C55.2882 5.0446 55.0017 4.99362 54.7138 5.0011C54.4259 5.00857 54.1425 5.07436 53.8808 5.19447C53.619 5.31459 53.3844 5.48653 53.1909 5.69992L37.5209 23.1099C37.3394 23.314 37.118 23.4788 36.8703 23.594C36.6226 23.7092 36.354 23.7725 36.0809 23.7799C35.8103 23.7855 35.5414 23.7361 35.2904 23.6347C35.0395 23.5332 34.8117 23.3819 34.6209 23.1899L28.2509 16.8199C27.852 16.4242 27.3129 16.2022 26.7509 16.2022C26.189 16.2022 25.6499 16.4242 25.2509 16.8199L21.3109 20.7399Z" fill="#555555"/>
</svg>
