<svg width="32" height="32" viewBox="0 0 32 32" fill="none" xmlns="http://www.w3.org/2000/svg">
<path d="M19 22H13C11.897 22 11 21.103 11 20V17.476C8.07997 15.527 6.56197 12.092 7.11097 8.56396C7.72097 4.65096 11.029 1.49396 14.976 1.05696C17.539 0.776961 20.097 1.58896 22.001 3.29296C23.906 4.99896 24.999 7.44396 24.999 9.99996C24.999 12.999 23.48 15.812 20.999 17.475V20C20.999 21.103 20.103 22 19 22ZM16.009 2.99996C15.74 2.99996 15.47 3.01496 15.197 3.04496C12.13 3.38396 9.55997 5.83496 9.08797 8.87096C8.63697 11.773 9.97697 14.593 12.501 16.056C12.81 16.235 13 16.564 13 16.921V20H19V16.921C19 16.564 19.19 16.234 19.499 16.056C21.658 14.805 23 12.484 23 9.99996C23 8.01196 22.149 6.10996 20.667 4.78296C19.367 3.61796 17.736 2.99996 16.009 2.99996Z" fill="#555555"/>
<path d="M19 24H13C12.447 24 12 24.448 12 25C12 25.552 12.447 26 13 26H19C19.553 26 20 25.552 20 25C20 24.448 19.553 24 19 24ZM18 28H14C13.447 28 13 28.448 13 29C13 29.552 13.447 30 14 30H18C18.553 30 19 29.552 19 29C19 28.448 18.553 28 18 28Z" fill="#256EF4"/>
</svg>
