<svg width="48" height="48" viewBox="0 0 48 48" fill="none" xmlns="http://www.w3.org/2000/svg">
<g clip-path="url(#clip0_338_526)">
<path d="M0 24C0 10.745 10.745 0 24 0C37.255 0 48 10.745 48 24C48 37.255 37.255 48 24 48C10.745 48 0 37.255 0 24Z" fill="#333333"/>
<path d="M19.1984 38.3998C20.4715 38.3998 21.6924 37.8941 22.5926 36.9939C23.4927 36.0937 23.9984 34.8728 23.9984 33.5998V28.7998H19.1984C17.9254 28.7998 16.7045 29.3055 15.8043 30.2057C14.9042 31.1059 14.3984 32.3268 14.3984 33.5998C14.3984 34.8728 14.9042 36.0937 15.8043 36.9939C16.7045 37.8941 17.9254 38.3998 19.1984 38.3998Z" fill="#0ACF83"/>
<path d="M14.3984 24.0002C14.3984 22.7272 14.9042 21.5063 15.8043 20.6061C16.7045 19.7059 17.9254 19.2002 19.1984 19.2002H23.9984V28.8002H19.1984C18.5681 28.8002 17.9439 28.676 17.3616 28.4348C16.7792 28.1936 16.25 27.84 15.8043 27.3943C15.3586 26.9486 15.005 26.4194 14.7638 25.8371C14.5226 25.2547 14.3984 24.6305 14.3984 24.0002Z" fill="#A259FF"/>
<path d="M14.3984 14.4001C14.3984 13.1271 14.9042 11.9062 15.8043 11.006C16.7045 10.1058 17.9254 9.6001 19.1984 9.6001H23.9984V19.2001H19.1984C17.9254 19.2001 16.7045 18.6944 15.8043 17.7942C14.9042 16.894 14.3984 15.6731 14.3984 14.4001Z" fill="#F24E1E"/>
<path d="M24 9.6001H28.8C30.073 9.6001 31.2939 10.1058 32.1941 11.006C33.0943 11.9062 33.6 13.1271 33.6 14.4001C33.6 15.6731 33.0943 16.894 32.1941 17.7942C31.2939 18.6944 30.073 19.2001 28.8 19.2001H24V9.6001Z" fill="#FF7262"/>
<path d="M33.6 24.0002C33.6 25.2732 33.0943 26.4941 32.1941 27.3943C31.2939 28.2945 30.073 28.8002 28.8 28.8002C27.527 28.8002 26.3061 28.2945 25.4059 27.3943C24.5057 26.4941 24 25.2732 24 24.0002C24 22.7272 24.5057 21.5063 25.4059 20.6061C26.3061 19.7059 27.527 19.2002 28.8 19.2002C30.073 19.2002 31.2939 19.7059 32.1941 20.6061C33.0943 21.5063 33.6 22.7272 33.6 24.0002Z" fill="#1ABCFE"/>
</g>
<defs>
<clipPath id="clip0_338_526">
<rect width="48" height="48" fill="white"/>
</clipPath>
</defs>
</svg>
