<svg width="256" height="256" viewBox="0 0 256 256" fill="none" xmlns="http://www.w3.org/2000/svg">
<path d="M170 16H86C47.3401 16 16 47.3401 16 86V170C16 208.66 47.3401 240 86 240H170C208.66 240 240 208.66 240 170V86C240 47.3401 208.66 16 170 16Z" fill="#EEEEEE"/>
<path d="M192.422 114.58L192.236 114.102L174.11 66.8061C173.741 65.8785 173.089 65.091 172.247 64.5559C171.398 64.0203 170.405 63.7612 169.402 63.8146C168.4 63.8679 167.44 64.231 166.652 64.8536C165.873 65.4788 165.311 66.3341 165.046 67.2977L152.791 104.803H103.21L90.9558 67.2977C90.6911 66.3341 90.129 65.4788 89.3495 64.8536C88.5658 64.2268 87.6056 63.861 86.6035 63.8076C85.6015 63.7542 84.6078 64.0159 83.762 64.5559C82.916 65.0888 82.2614 65.8768 81.8926 66.8061L63.7456 114.164L63.5586 114.635C60.9536 121.456 60.6334 128.938 62.6461 135.956C64.6589 142.975 68.8958 149.15 74.7196 153.553L74.7889 153.602L74.9481 153.726L102.594 174.421L116.262 184.772L124.57 191.066C125.546 191.803 126.736 192.202 127.96 192.202C129.182 192.202 130.372 191.803 131.349 191.066L139.657 184.772L153.331 174.421L181.137 153.602L181.213 153.546C187.057 149.147 191.31 142.967 193.332 135.937C195.355 128.908 195.035 121.412 192.422 114.58Z" fill="#E24329"/>
<path d="M192.426 114.578L192.239 114.101C183.398 115.922 175.068 119.669 167.84 125.074L128.035 155.241C141.606 165.502 153.418 174.42 153.418 174.42L181.223 153.6L181.299 153.545C187.128 149.135 191.366 142.949 193.373 135.921C195.38 128.892 195.047 121.401 192.426 114.578Z" fill="#FC6D26"/>
<path d="M102.617 174.418L116.264 184.769L124.572 191.063C125.548 191.8 126.738 192.199 127.961 192.199C129.185 192.199 130.375 191.8 131.351 191.063L139.659 184.769L153.333 174.418C153.333 174.418 141.521 165.501 127.951 155.239L102.617 174.418Z" fill="#FCA326"/>
<path d="M88.1451 125.103C80.9186 119.695 72.5872 115.951 63.746 114.136L63.559 114.607C60.9473 121.431 60.6236 128.919 62.6366 135.943C64.6496 142.967 68.8902 149.147 74.72 153.552L74.7893 153.601L74.9485 153.725L102.595 174.42L128.032 155.242L88.1451 125.103Z" fill="#FC6D26"/>
</svg>
