<svg width="48" height="48" viewBox="0 0 48 48" fill="none" xmlns="http://www.w3.org/2000/svg">
<g clip-path="url(#clip0_338_522)">
<path d="M0 24C0 10.745 10.745 0 24 0C37.255 0 48 10.745 48 24C48 37.255 37.255 48 24 48C10.745 48 0 37.255 0 24Z" fill="#F37021"/>
<path d="M2.39844 23.9999C2.39844 12.0699 12.0684 2.3999 23.9984 2.3999C35.9284 2.3999 45.5984 12.0699 45.5984 23.9999C45.5984 35.9299 35.9284 45.5999 23.9984 45.5999C12.0684 45.5999 2.39844 35.9299 2.39844 23.9999Z" fill="url(#paint0_radial_338_522)"/>
<path fill-rule="evenodd" clip-rule="evenodd" d="M29.7474 15.0798C29.7474 13.8678 30.5854 13.1538 31.6734 13.1538C32.8234 13.1538 33.5994 13.9298 33.5994 15.0798C33.5994 16.3218 32.7914 17.0058 31.6424 17.0058C30.5234 17.0058 29.7474 16.3218 29.7474 15.0798ZM14.5344 34.2498L16.0244 28.6038H22.0534L23.6064 34.2798C23.6374 34.4038 23.7314 34.4398 23.8864 34.4398H26.9934C27.1484 34.4398 27.1794 34.3468 27.1484 34.1918L21.1514 13.8698C21.1204 13.7138 21.0584 13.6828 20.9334 13.6828H16.9894C16.8964 13.6828 16.8344 13.7448 16.8344 13.8698C16.8034 14.8018 16.7404 15.0958 16.6474 15.4378L11.3034 34.1598C11.2724 34.3778 11.3034 34.4398 11.4894 34.4398H14.2544C14.4404 34.4398 14.5034 34.4028 14.5344 34.2478V34.2498ZM20.6814 23.2598C20.9144 24.1498 21.1244 24.9478 21.2754 25.5438H16.8334L16.8834 25.3538C17.6524 22.4638 18.6134 18.8528 19.0084 16.6938H19.0384C19.3714 18.2688 20.0994 21.0438 20.6814 23.2598ZM30.1754 19.1418C30.0204 19.1418 29.9584 19.2048 29.9584 19.3598V34.1918C29.9584 34.3468 30.0204 34.4408 30.2064 34.4408H33.1294C33.3164 34.4408 33.3474 34.3778 33.3474 34.2228V19.3598C33.3474 19.2048 33.2854 19.1418 33.1294 19.1418H30.1754Z" fill="#FF7F18"/>
</g>
<defs>
<radialGradient id="paint0_radial_338_522" cx="0" cy="0" r="1" gradientUnits="userSpaceOnUse" gradientTransform="translate(19.6214 16.7899) scale(28.1648)">
<stop stop-color="#1C0A00" stop-opacity="0.85"/>
<stop offset="0.767" stop-color="#1C0A00"/>
</radialGradient>
<clipPath id="clip0_338_522">
<rect width="48" height="48" fill="white"/>
</clipPath>
</defs>
</svg>
