<svg width="96" height="96" viewBox="0 0 96 96" fill="none" xmlns="http://www.w3.org/2000/svg">
<path d="M80 12H16C9.373 12 4 17.373 4 24V72C4 78.627 9.373 84 16 84H80C86.627 84 92 78.627 92 72V24C92 17.373 86.627 12 80 12ZM80 20C80.462 20 80.906 20.078 81.318 20.223L48 46.878L14.682 20.223C15.1055 20.0746 15.5512 19.9992 16 20H80ZM80 76H16C14.9391 76 13.9217 75.5786 13.1716 74.8284C12.4214 74.0783 12 73.0609 12 72V28.322L45.501 55.123C46.231 55.708 47.115 56 48 56C48.885 56 49.769 55.708 50.499 55.123L84 28.322V72C84 73.0609 83.5786 74.0783 82.8284 74.8284C82.0783 75.5786 81.0609 76 80 76Z" fill="#C6C6C6"/>
</svg>
