<svg width="48" height="48" viewBox="0 0 48 48" fill="none" xmlns="http://www.w3.org/2000/svg">
<path d="M42 6.00001H39.08V8.00001H42C42.2652 8.00001 42.5196 8.10536 42.7071 8.2929C42.8946 8.48044 43 8.73479 43 9.00001V30H5V9.00001C5 8.73479 5.10536 8.48044 5.29289 8.2929C5.48043 8.10536 5.73478 8.00001 6 8.00001H9.08V6.00001H6C5.20435 6.00001 4.44129 6.31608 3.87868 6.87869C3.31607 7.44129 3 8.20436 3 9.00001V35C3 36.3261 3.52678 37.5979 4.46447 38.5355C5.40215 39.4732 6.67392 40 8 40H19V44H17V46H32V44H29V40H40C41.3261 40 42.5979 39.4732 43.5355 38.5355C44.4732 37.5979 45 36.3261 45 35V9.00001C45 8.20436 44.6839 7.44129 44.1213 6.87869C43.5587 6.31608 42.7956 6.00001 42 6.00001ZM27 44H21V40H27V44ZM40 38H8C7.20435 38 6.44129 37.6839 5.87868 37.1213C5.31607 36.5587 5 35.7957 5 35V32H43V35C43 35.7957 42.6839 36.5587 42.1213 37.1213C41.5587 37.6839 40.7956 38 40 38ZM21 34H27V36H21V34ZM24 28C26.5712 28 29.0846 27.2376 31.2224 25.8091C33.3603 24.3807 35.0265 22.3503 36.0104 19.9749C36.9944 17.5995 37.2518 14.9856 36.7502 12.4638C36.2486 9.94208 35.0105 7.6257 33.1924 5.80762C31.3743 3.98953 29.0579 2.75141 26.5362 2.2498C24.0144 1.74819 21.4006 2.00563 19.0251 2.98957C16.6497 3.97351 14.6194 5.63975 13.1909 7.77759C11.7624 9.91543 11 12.4288 11 15C11 18.4478 12.3696 21.7544 14.8076 24.1924C17.2456 26.6304 20.5522 28 24 28ZM13.66 18.71C15.1685 19.57 16.8117 20.1684 18.52 20.48C18.8316 22.1883 19.4301 23.8315 20.29 25.34C18.7647 24.7916 17.3794 23.9129 16.2332 22.7668C15.0871 21.6206 14.2084 20.2353 13.66 18.71ZM18.19 11.71C17.9367 13.9295 17.9367 16.1705 18.19 18.39C15 17.57 13 16.24 13 15C13 13.76 15 12.43 18.19 11.66V11.71ZM24 4.00001C25.24 4.00001 26.57 6.00001 27.34 9.19001C25.1205 8.93666 22.8795 8.93666 20.66 9.19001C21.43 6.00001 22.76 4.00001 24 4.00001ZM24 11C25.2511 11.001 26.5008 11.0879 27.74 11.26C28.087 13.7413 28.087 16.2587 27.74 18.74C26.5008 18.9121 25.2511 18.999 24 19C22.7489 18.999 21.4992 18.9121 20.26 18.74C19.913 16.2587 19.913 13.7413 20.26 11.26C21.4992 11.0879 22.7489 11.001 24 11ZM35 15C35 16.24 33 17.57 29.81 18.34C30.0633 16.1205 30.0633 13.8795 29.81 11.66C33 12.43 35 13.76 35 15ZM24 26C22.76 26 21.43 24 20.66 20.81C21.7689 20.9363 22.884 20.9997 24 21C25.116 20.9997 26.2311 20.9363 27.34 20.81C26.57 24 25.24 26 24 26ZM27.71 25.34C28.5699 23.8315 29.1684 22.1883 29.48 20.48C31.1883 20.1684 32.8315 19.57 34.34 18.71C33.7916 20.2353 32.9129 21.6206 31.7668 22.7668C30.6206 23.9129 29.2353 24.7916 27.71 25.34ZM34.34 11.34C32.8315 10.4801 31.1883 9.88161 29.48 9.57001C29.1684 7.86175 28.5699 6.21855 27.71 4.71001C29.2302 5.25309 30.6123 6.12413 31.7581 7.2613C32.9039 8.39848 33.7854 9.77392 34.34 11.29V11.34ZM20.29 4.66001C19.4301 6.16855 18.8316 7.81175 18.52 9.52001C16.8117 9.83161 15.1685 10.4301 13.66 11.29C14.2084 9.76467 15.0871 8.37938 16.2332 7.23322C17.3794 6.08706 18.7647 5.20837 20.29 4.66001Z" fill="black"/>
</svg>
