<svg width="100" height="100" viewBox="0 0 100 100" fill="none" xmlns="http://www.w3.org/2000/svg">
<path d="M50.0001 0C10.5333 0 0 10.5333 0 50.0001C0 89.4669 10.5333 100 50.0001 100C89.4669 100 100 89.4816 100 50.0001C100 10.5186 89.4816 0 50.0001 0Z" fill="url(#paint0_linear_357_579)"/>
<path d="M50.7458 21.2131L32.7851 31.5852C31.2733 32.4758 30.1744 33.9274 29.7274 35.6241C29.2804 37.3208 29.5215 39.1254 30.3983 40.6452C31.2751 42.1651 32.7165 43.2772 34.4091 43.7397C36.1016 44.2021 37.9083 43.9775 39.4361 43.1147L54.6281 34.3248L47.4057 42.0746V72.5464C47.486 74.2582 48.2226 75.8734 49.4625 77.0565C50.7023 78.2396 52.3503 78.8996 54.064 78.8996C55.7778 78.8996 57.4257 78.2396 58.6656 77.0565C59.9055 75.8734 60.6421 74.2582 60.7224 72.5464V26.9852C60.7194 25.8196 60.4167 24.6745 59.8434 23.6596C58.9498 22.1414 57.496 21.0344 55.7947 20.5769C54.0934 20.1194 52.2805 20.3478 50.7458 21.2131Z" fill="white"/>
<mask id="mask0_357_579" style="mask-type:luminance" maskUnits="userSpaceOnUse" x="0" y="0" width="100" height="100">
<path d="M50.0001 0C10.5333 0 0 10.5333 0 50.0001C0 89.4669 10.5333 100 50.0001 100C89.4669 100 100 89.4816 100 50.0001C100 10.5186 89.4816 0 50.0001 0Z" fill="white"/>
</mask>
<g mask="url(#mask0_357_579)">
<path d="M34.9414 57.4278V100L100.016 100.015V12.2769L34.9414 57.4278Z" fill="url(#paint1_linear_357_579)"/>
<path d="M34.94 57.4278V100L0 100.015V17.4189L34.94 57.4278Z" fill="url(#paint2_linear_357_579)"/>
</g>
<defs>
<linearGradient id="paint0_linear_357_579" x1="-7.41285" y1="-7.82305" x2="90.5364" y2="90.8147" gradientUnits="userSpaceOnUse">
<stop stop-color="#F3742E"/>
<stop offset="1" stop-color="#ED0A72"/>
</linearGradient>
<linearGradient id="paint1_linear_357_579" x1="24.3056" y1="19.0305" x2="74.3936" y2="62.0865" gradientUnits="userSpaceOnUse">
<stop stop-color="white" stop-opacity="0.5"/>
<stop offset="1" stop-color="white" stop-opacity="0"/>
</linearGradient>
<linearGradient id="paint2_linear_357_579" x1="66.6424" y1="-5.347" x2="16.7888" y2="59.596" gradientUnits="userSpaceOnUse">
<stop stop-color="white" stop-opacity="0.5"/>
<stop offset="1" stop-color="white" stop-opacity="0"/>
</linearGradient>
</defs>
</svg>
