<svg width="24" height="24" viewBox="0 0 24 24" fill="none" xmlns="http://www.w3.org/2000/svg">
<g clip-path="url(#clip0_375_655)">
<path d="M18.0003 23.1998C16.6003 23.1998 15.0003 22.7998 13.2003 21.8998C11.0003 20.7998 8.80032 19.1998 6.70032 17.0998C4.70032 15.0998 3.00032 12.7998 1.90032 10.5998C0.200321 7.0998 0.100321 4.1998 1.80032 2.5998C2.20032 2.1998 2.80032 2.1998 3.20032 2.5998C3.60032 2.9998 3.60032 3.5998 3.20032 3.9998C2.20032 4.9998 2.40032 7.19981 3.70032 9.79981C4.70032 11.7998 6.20032 13.8998 8.10032 15.7998C10.0003 17.6998 12.1003 19.1998 14.1003 20.1998C16.7003 21.4998 18.9003 21.6998 19.9003 20.6998C20.3003 20.2998 20.9003 20.2998 21.3003 20.6998C21.7003 21.0998 21.7003 21.6998 21.3003 22.0998C20.5003 22.7998 19.4003 23.1998 18.0003 23.1998Z" fill="#C6C6C6"/>
<path d="M7.8 10.7001C7.4 10.7001 7.1 10.5001 6.9 10.1001C6.6 9.60005 6.8 9.00005 7.3 8.80005L9.6 7.70005C10 7.50005 10.5 7.00005 10.4 6.40005C10.4 6.10005 10.2 5.90005 10 5.70005L6.7 2.30005C6.4 2.00005 5.9 1.90005 5.4 2.00005L4.8 2.30005L3.2 4.00005C2.8 4.40005 2.2 4.40005 1.8 4.00005C1.4 3.60005 1.4 3.00005 1.8 2.60005L3.4 1.00005C3.8 0.600051 4.3 0.300051 4.8 0.200051C6 -0.099949 7.2 0.200051 8.1 1.00005L11.4 4.30005C11.9 4.80005 12.2 5.50005 12.3 6.20005C12.5 7.50005 11.7 8.90005 10.4 9.60005L8.1 10.7001C8.1 10.6001 7.9 10.7001 7.8 10.7001ZM20.5 22.3001C20.2 22.3001 20 22.2001 19.8 22.0001C19.4 21.6001 19.4 21.0001 19.8 20.6001L21.4 19.0001C21.6 18.8001 21.7 18.7001 21.7 18.4001C21.8 17.9001 21.7 17.4001 21.4 17.1001L18.1 13.8001C17.9 13.6001 17.6 13.5001 17.4 13.4001C16.8 13.3001 16.3 13.7001 16.1 14.2001L15 16.5001C14.8 17.0001 14.2 17.2001 13.7 16.9001C13.2 16.7001 13 16.1001 13.3 15.6001L14.4 13.3001C15.1 12.0001 16.4 11.2001 17.8 11.4001C18.5 11.5001 19.1 11.8001 19.6 12.3001L22.9 15.6001C23.8 16.5001 24.1 17.7001 23.7 18.9001C23.5 19.4001 23.3 19.9001 22.9 20.3001L21.2 22.0001C21 22.2001 20.8 22.3001 20.5 22.3001Z" fill="#C6C6C6"/>
<path d="M14.0992 16.9999C13.8992 16.9999 13.6992 16.8999 13.4992 16.7999C12.2992 15.8999 11.0992 14.8999 9.89922 13.7999C8.69922 12.5999 7.69922 11.3999 6.89922 10.1999C6.59922 9.79992 6.69922 9.19992 7.19922 8.79992C7.69922 8.49992 8.29922 8.59992 8.59922 8.99992C9.39922 10.0999 10.2992 11.2999 11.3992 12.2999C12.4992 13.2999 13.5992 14.2999 14.6992 15.0999C15.1992 15.3999 15.2992 15.9999 14.8992 16.4999C14.7992 16.8999 14.4992 16.9999 14.0992 16.9999Z" fill="#C6C6C6"/>
</g>
<defs>
<clipPath id="clip0_375_655">
<rect width="24" height="24" fill="white"/>
</clipPath>
</defs>
</svg>
