<svg width="48" height="48" viewBox="0 0 48 48" fill="none" xmlns="http://www.w3.org/2000/svg">
<g clip-path="url(#clip0_338_518)">
<path d="M0 24C0 10.745 10.745 0 24 0C37.255 0 48 10.745 48 24C48 37.255 37.255 48 24 48C10.745 48 0 37.255 0 24Z" fill="#31C5F0"/>
<path d="M2.39844 23.9999C2.39844 12.0699 12.0684 2.3999 23.9984 2.3999C35.9284 2.3999 45.5984 12.0699 45.5984 23.9999C45.5984 35.9299 35.9284 45.5999 23.9984 45.5999C12.0684 45.5999 2.39844 35.9299 2.39844 23.9999Z" fill="url(#paint0_radial_338_518)"/>
<path fill-rule="evenodd" clip-rule="evenodd" d="M12 13.9141C12 13.7881 12.269 13.6941 12.426 13.6941C13.649 13.6311 15.445 13.6001 17.326 13.6001C22.596 13.6001 24.648 16.4851 24.648 20.1861C24.648 25.0161 21.145 27.0861 16.848 27.0861C16.455 27.0861 16.201 27.0761 15.971 27.0681C15.7721 27.0598 15.5731 27.0555 15.374 27.0551V34.3581C15.374 34.5151 15.311 34.5781 15.154 34.5781H12.22C12.063 34.5781 12 34.5141 12 34.3581V13.9141ZM15.374 24.0131C15.813 24.0431 16.158 24.0431 16.911 24.0431C19.137 24.0431 21.229 23.2601 21.229 20.2491C21.229 17.8341 19.733 16.6111 17.193 16.6111C16.44 16.6111 15.719 16.6411 15.373 16.6741V24.0121L15.374 24.0131ZM29.727 23.1341C29.727 22.5071 30.229 21.7541 31.734 21.7541C32.958 21.7541 34.204 22.0681 35.05 22.5701C35.238 22.6331 35.332 22.5381 35.332 22.3821V19.7781C35.332 19.6531 35.301 19.4961 35.144 19.4021C34.517 19.1201 33.365 18.8691 31.734 18.8691C28.41 18.8691 26.497 20.9071 26.497 23.3541C26.497 25.5491 27.626 26.8661 30.323 28.1521C32.236 29.1561 32.675 29.7521 32.675 30.4421C32.675 31.2891 32.048 31.9161 30.543 31.9161C29.288 31.9161 27.905 31.5711 26.713 30.7861C26.588 30.6931 26.493 30.7561 26.493 30.9441V33.7351C26.493 33.8921 26.525 33.9861 26.65 34.0491C27.466 34.5191 28.88 34.8641 30.543 34.8641C33.679 34.8641 36 33.2341 36 30.1911C36 28.1531 35.06 26.7731 32.08 25.3301C30.072 24.2951 29.727 23.8241 29.727 23.1341Z" fill="#31C5F0"/>
</g>
<defs>
<radialGradient id="paint0_radial_338_518" cx="0" cy="0" r="1" gradientUnits="userSpaceOnUse" gradientTransform="translate(19.6214 16.7899) scale(28.1648)">
<stop stop-color="#0E0E17" stop-opacity="0.85"/>
<stop offset="0.767" stop-color="#0E0E17"/>
</radialGradient>
<clipPath id="clip0_338_518">
<rect width="48" height="48" fill="white"/>
</clipPath>
</defs>
</svg>
