<svg width="124" height="124" viewBox="0 0 124 124" fill="none" xmlns="http://www.w3.org/2000/svg">
<g clip-path="url(#clip0_423_700)">
<path d="M121.941 120.994H2.05767C0.933555 120.994 0.0078125 120.081 0.0078125 118.935V5.05189C0.0078125 3.92318 0.917024 2.99365 2.05767 2.99365H121.958C123.082 2.99365 124.008 3.90658 124.008 5.05189V118.935C123.991 120.081 123.082 120.994 121.941 120.994ZM5.091 115.894H118.892V8.11013H5.091V115.894Z" fill="#555555"/>
<path d="M3.05657 20.9937H73.3255C74.449 20.9937 75.3743 20.1066 75.3743 18.9937C75.3743 17.8807 74.449 16.9937 73.3255 16.9937H3.05657C1.91653 16.9937 1.00781 17.8807 1.00781 18.9937C1.00781 20.1066 1.93306 20.9937 3.05657 20.9937Z" fill="#555555"/>
<path d="M106.568 20.9937H120.959C122.083 20.9937 123.008 20.1066 123.008 18.9937C123.008 17.8807 122.083 16.9937 120.959 16.9937H106.568C105.428 16.9937 104.519 17.8807 104.519 18.9937C104.519 20.1066 105.445 20.9937 106.568 20.9937Z" fill="#555555"/>
<path d="M84.9407 20.9937H94.9531C96.0766 20.9937 97.0019 20.1066 97.0019 18.9937C97.0019 17.8807 96.0766 16.9937 94.9531 16.9937H84.9407C83.8006 16.9937 82.8919 17.8807 82.8919 18.9937C82.8919 20.1066 83.8171 20.9937 84.9407 20.9937Z" fill="#555555"/>
<path d="M59.9566 71.9937H13.0591C11.9342 71.9937 11.0078 71.0931 11.0078 69.9632V32.0241C11.0078 30.9106 11.9176 29.9937 13.0591 29.9937H59.9566C61.0814 29.9937 62.0078 30.8942 62.0078 32.0241V69.9796C62.0078 71.0931 61.098 71.9937 59.9566 71.9937ZM15.0938 67.9492H57.9053V34.0381H15.0938V67.9492Z" fill="#256EF4"/>
<path d="M14.9359 71.9937C14.3831 71.9937 13.8303 71.7433 13.4401 71.276C12.7734 70.4248 12.8873 69.1898 13.7165 68.4888L57.8603 31.4374C58.6895 30.7531 59.8927 30.8699 60.5755 31.7211C61.2422 32.5723 61.1284 33.8073 60.2991 34.5083L16.1554 71.543C15.7977 71.8434 15.3749 71.9937 14.9359 71.9937Z" fill="#256EF4"/>
<path d="M57.8723 69.3108C57.4427 69.3108 57.0296 69.1781 56.666 68.8962L12.8421 34.5045C11.9993 33.8412 11.8341 32.5975 12.5116 31.7518C13.1726 30.8895 14.4119 30.7403 15.2547 31.4201L59.0621 65.7953C59.9049 66.4586 60.0701 67.7023 59.3926 68.548C59.0291 69.0454 58.4507 69.3108 57.8723 69.3108ZM109.959 72.6272H68.4317C67.308 72.6272 66.3826 71.7152 66.3826 70.571V57.471C66.3826 56.3434 67.2915 55.4148 68.4317 55.4148H109.959C111.082 55.4148 112.008 56.3268 112.008 57.471V70.571C112.008 71.7152 111.082 72.6272 109.959 72.6272ZM70.4808 68.5314H107.926V59.5438H70.4808V68.5314ZM109.959 93.3717H13.0569C11.9332 93.3717 11.0078 92.4597 11.0078 91.3155V81.2998C11.0078 80.1722 11.9167 79.2436 13.0569 79.2436H109.959C111.082 79.2436 112.008 80.1556 112.008 81.2998V91.3155C112.008 92.4431 111.082 93.3717 109.959 93.3717ZM15.0895 89.2593H107.91V83.3394H15.0895V89.2593ZM109.959 51.0868H68.4317C67.308 51.0868 66.3826 50.1748 66.3826 49.0306C66.3826 47.8864 67.2915 46.9744 68.4317 46.9744H109.959C111.082 46.9744 112.008 47.8864 112.008 49.0306C112.008 50.1748 111.082 51.0868 109.959 51.0868ZM54.6996 111.994H13.1891C12.0654 111.994 11.14 111.082 11.14 109.937V100.17C11.14 99.0429 12.0489 98.1142 13.1891 98.1142H54.7161C55.8398 98.1142 56.7652 99.0263 56.7652 100.17V109.937C56.7486 111.065 55.8398 111.994 54.6996 111.994ZM15.2217 107.881H52.667V102.21H15.2217V107.881ZM109.959 102.227H65.8043C64.6806 102.227 63.7552 101.315 63.7552 100.17C63.7552 99.0429 64.6641 98.1142 65.8043 98.1142H109.959C111.082 98.1142 112.008 99.0263 112.008 100.17C112.008 101.298 111.082 102.227 109.959 102.227ZM109.959 111.778H65.8043C64.6806 111.778 63.7552 110.866 63.7552 109.722C63.7552 108.578 64.6641 107.666 65.8043 107.666H109.959C111.082 107.666 112.008 108.578 112.008 109.722C112.008 110.866 111.082 111.778 109.959 111.778Z" fill="#256EF4"/>
<path d="M110.502 42.5407H68.8973C67.7733 42.5407 66.8477 41.6316 66.8477 40.4911C66.8477 39.3505 67.7568 38.4414 68.8973 38.4414H110.502C111.626 38.4414 112.552 39.3505 112.552 40.4911C112.552 41.6316 111.626 42.5407 110.502 42.5407Z" fill="#256EF4"/>
<path d="M89.7575 34.1105H68.8973C67.7733 34.1105 66.8477 33.2014 66.8477 32.0609C66.8477 30.9204 67.7568 30.0112 68.8973 30.0112H89.7575C90.8815 30.0112 91.8072 30.9204 91.8072 32.0609C91.8072 33.2014 90.8815 34.1105 89.7575 34.1105Z" fill="#256EF4"/>
</g>
<defs>
<clipPath id="clip0_423_700">
<rect width="124" height="124" fill="white"/>
</clipPath>
</defs>
</svg>
