<svg width="96" height="96" viewBox="0 0 96 96" fill="none" xmlns="http://www.w3.org/2000/svg">
<path d="M9 24C9 15.7157 15.7157 9 24 9H47.5H71C79.2843 9 86 15.7157 86 24V49V71C86 79.2843 79.2843 86 71 86H24C15.7157 86 9 79.2843 9 71V49V24ZM9 24H85" stroke="#555555" stroke-width="5" stroke-linecap="round"/>
<path d="M39.9996 44L31.1209 52.8787C29.9493 54.0503 29.9493 55.9497 31.1209 57.1213L39.9996 66M55.9996 44L64.8783 52.8787C66.0499 54.0503 66.0499 55.9497 64.8783 57.1213L55.9996 66" stroke="#256EF4" stroke-width="5" stroke-linecap="round"/>
</svg>
