<svg width="94" height="94" viewBox="0 0 94 94" fill="none" xmlns="http://www.w3.org/2000/svg">
<path d="M21 79.9688H60" stroke="#555555" stroke-width="5" stroke-linecap="round" stroke-linejoin="round"/>
<path d="M62.9048 68.9688H7.01714C5.95173 68.9688 4.92995 68.5524 4.17659 67.8112C3.42323 67.0701 3 66.0649 3 65.0168V20.9208C3 20.4018 3.10391 19.8879 3.30579 19.4084C3.50767 18.9289 3.80357 18.4932 4.17659 18.1263C4.54962 17.7593 4.99247 17.4682 5.47985 17.2696C5.96723 17.071 6.4896 16.9688 7.01714 16.9688H72.9829C73.5104 16.9688 74.0328 17.071 74.5201 17.2696C75.0075 17.4682 75.4504 17.7593 75.8234 18.1263C76.1964 18.4932 76.4923 18.9289 76.6942 19.4084C76.8961 19.8879 77 20.4018 77 20.9208V37.7688" stroke="#555555" stroke-width="5" stroke-linecap="round" stroke-linejoin="round"/>
<path d="M3 55.9688H63" stroke="#555555" stroke-width="5" stroke-linecap="round" stroke-linejoin="round"/>
<path d="M45 62.9688H34" stroke="#555555" stroke-width="5" stroke-linecap="round" stroke-linejoin="round"/>
<path d="M49 68.9688H31V79.9688H49V68.9688Z" stroke="#555555" stroke-width="5" stroke-linecap="round" stroke-linejoin="round"/>
<path d="M89.2 47.9688H74.8C73.8059 47.9688 73 48.7647 73 49.7465V78.191C73 79.1728 73.8059 79.9688 74.8 79.9688H89.2C90.1941 79.9688 91 79.1728 91 78.191V49.7465C91 48.7647 90.1941 47.9688 89.2 47.9688Z" stroke="#256EF4" stroke-width="5" stroke-linecap="round" stroke-linejoin="round"/>
<path d="M73 72.9688H91" stroke="#256EF4" stroke-width="5" stroke-linecap="round" stroke-linejoin="round"/>
<path d="M73 55.9688H91" stroke="#256EF4" stroke-width="5" stroke-linecap="round" stroke-linejoin="round"/>
</svg>
