<svg width="128" height="128" viewBox="0 0 128 128" fill="none" xmlns="http://www.w3.org/2000/svg">
<path d="M29.62 12.8502L64 9.24023L98.38 12.8502L125 48.2902L64 118.76L3 48.2902L29.62 12.8502Z" fill="#FDB300"/>
<path d="M27.71 48.29L64 118.76L3 48.29H27.71Z" fill="#EA6C00"/>
<path d="M100.29 48.29L64 118.76L125 48.29H100.29Z" fill="#EA6C00"/>
<path d="M27.7109 48.29H100.291L64.0009 118.76L27.7109 48.29Z" fill="#FDAD00"/>
<path d="M64.0009 9.24023L29.6209 12.8502L27.7109 48.2902L64.0009 9.24023Z" fill="#FDD231"/>
<path d="M64 9.24023L98.38 12.8502L100.29 48.2902L64 9.24023Z" fill="#FDD231"/>
<path d="M124.999 48.2901L98.3789 12.8501L100.289 48.2901H124.999Z" fill="#FDAD00"/>
<path d="M64.0009 9.24023L27.7109 48.2902H100.291L64.0009 9.24023Z" fill="#FEEEB7"/>
<path d="M3 48.2901L29.62 12.8501L27.71 48.2901H3Z" fill="#FDAD00"/>
</svg>
