<svg width="64" height="64" viewBox="0 0 64 64" fill="none" xmlns="http://www.w3.org/2000/svg">
<path d="M32 10C31.4696 10 30.9609 9.78929 30.5858 9.41421C30.2107 9.03914 30 8.53043 30 8V3C30 2.46957 30.2107 1.96086 30.5858 1.58579C30.9609 1.21071 31.4696 1 32 1C32.5304 1 33.0391 1.21071 33.4142 1.58579C33.7893 1.96086 34 2.46957 34 3V8C34 8.53043 33.7893 9.03914 33.4142 9.41421C33.0391 9.78929 32.5304 10 32 10Z" fill="#256EF4"/>
<path d="M51.6814 42.92L39.0014 23.15C40.4346 21.7551 41.4166 19.9626 41.8207 18.004C42.2247 16.0453 42.0322 14.0105 41.268 12.1624C40.5038 10.3143 39.203 8.73779 37.5337 7.63649C35.8643 6.53519 33.9031 5.95972 31.9034 5.9844C29.9037 6.00909 27.9573 6.63281 26.3157 7.77498C24.674 8.91716 23.4126 10.5253 22.6942 12.3917C21.9759 14.2582 21.8337 16.2971 22.2859 18.2452C22.7382 20.1932 23.7642 21.9609 25.2314 23.32L13.2914 43C13.0312 43.4547 12.9599 43.9933 13.0926 44.5C13.2254 45.0068 13.5517 45.4412 14.0014 45.71C14.3033 45.8932 14.6483 45.9933 15.0014 46C15.3487 45.9961 15.6891 45.9019 15.9889 45.7265C16.2887 45.5512 16.5377 45.3008 16.7114 45L22.8014 35H30.0014V36C30.0014 36.5304 30.2121 37.0391 30.5872 37.4142C30.9622 37.7892 31.471 38 32.0014 38C32.5318 38 33.0405 37.7892 33.4156 37.4142C33.7907 37.0391 34.0014 36.5304 34.0014 36V35H41.8414L48.3214 45.08C48.5021 45.3616 48.7506 45.5934 49.0441 45.7542C49.3376 45.9149 49.6668 45.9994 50.0014 46C50.3851 46.0024 50.761 45.8911 51.0814 45.68C51.5264 45.393 51.8394 44.9414 51.9519 44.424C52.0643 43.9066 51.9671 43.3657 51.6814 42.92ZM32.0014 9.99996C33.1881 9.99996 34.3481 10.3518 35.3348 11.0111C36.3215 11.6704 37.0905 12.6075 37.5447 13.7039C37.9988 14.8002 38.1176 16.0066 37.8861 17.1705C37.6546 18.3344 37.0831 19.4035 36.244 20.2426C35.4049 21.0817 34.3358 21.6532 33.1719 21.8847C32.008 22.1162 30.8016 21.9974 29.7053 21.5432C28.6089 21.0891 27.6719 20.3201 27.0126 19.3334C26.3533 18.3467 26.0014 17.1866 26.0014 16C26.0014 14.4087 26.6335 12.8825 27.7587 11.7573C28.884 10.6321 30.4101 9.99996 32.0014 9.99996ZM34.0014 31V30C34.0014 29.4695 33.7907 28.9608 33.4156 28.5857C33.0405 28.2107 32.5318 28 32.0014 28C31.471 28 30.9622 28.2107 30.5872 28.5857C30.2121 28.9608 30.0014 29.4695 30.0014 30V31H25.2314L28.6314 25.4C29.7119 25.7922 30.8519 25.9951 32.0014 26C33.2362 25.9965 34.4599 25.766 35.6114 25.32L39.2614 31H34.0014Z" fill="#555555"/>
<path d="M11 63C10.628 62.9998 10.2633 62.8958 9.94708 62.6997C9.63086 62.5036 9.37561 62.2232 9.21004 61.89L5.21004 53.89C5.07012 53.6143 4.99812 53.3092 5.00004 53V34C5.00004 32.4087 5.63218 30.8826 6.7574 29.7574C7.88262 28.6321 9.40874 28 11 28C12.5913 28 14.1175 28.6321 15.2427 29.7574C16.3679 30.8826 17 32.4087 17 34V53C17.002 53.3092 16.93 53.6143 16.79 53.89L12.79 61.89C12.6245 62.2232 12.3692 62.5036 12.053 62.6997C11.7368 62.8958 11.3721 62.9998 11 63ZM9.00004 52.53L11 56.53L13 52.53V34C13 33.4696 12.7893 32.9609 12.4143 32.5858C12.0392 32.2107 11.5305 32 11 32C10.4696 32 9.9609 32.2107 9.58582 32.5858C9.21075 32.9609 9.00004 33.4696 9.00004 34V52.53ZM58 63C57.4705 62.9978 56.9634 62.7856 56.59 62.41L48.59 54.41C48.2145 54.0366 48.0023 53.5296 48 53V44C48 43.4696 48.2108 42.9609 48.5858 42.5858C48.9609 42.2107 49.4696 42 50 42H58C58.5305 42 59.0392 42.2107 59.4143 42.5858C59.7893 42.9609 60 43.4696 60 44V61C60.0009 61.3954 59.8845 61.7822 59.6655 62.1115C59.4466 62.4408 59.135 62.6978 58.77 62.85C58.5253 62.9486 58.2639 62.9995 58 63ZM52 52.17L56 56.17V46H52V52.17Z" fill="#256EF4"/>
</svg>
