<svg width="48" height="48" viewBox="0 0 48 48" fill="none" xmlns="http://www.w3.org/2000/svg">
<g clip-path="url(#clip0_338_557)">
<path d="M0 24C0 10.745 10.745 0 24 0C37.255 0 48 10.745 48 24C48 37.255 37.255 48 24 48C10.745 48 0 37.255 0 24Z" fill="#FF2BC2"/>
<path d="M2.39844 23.9999C2.39844 12.0699 12.0684 2.3999 23.9984 2.3999C35.9284 2.3999 45.5984 12.0699 45.5984 23.9999C45.5984 35.9299 35.9284 45.5999 23.9984 45.5999C12.0684 45.5999 2.39844 35.9299 2.39844 23.9999Z" fill="url(#paint0_radial_338_557)"/>
<path fill-rule="evenodd" clip-rule="evenodd" d="M24.7061 32.5062L20.1561 23.6822L24.4461 15.4442C24.5281 15.2972 24.4791 15.2002 24.3491 15.2002H21.7331C21.5731 15.2002 21.5231 15.2802 21.4431 15.4062L21.4401 15.4112C21.1711 15.9892 20.8981 16.5692 20.6251 17.1512C19.8857 18.7071 19.166 20.2722 18.4661 21.8462H18.4341C17.7171 20.2452 16.9641 18.6702 16.2101 17.0892C15.9381 16.5202 15.6661 15.9512 15.3951 15.3792C15.3461 15.2332 15.2651 15.2002 15.1031 15.2002H12.3081C12.1941 15.2002 12.0971 15.3142 12.1941 15.4442L16.5001 23.9592L12.0481 32.5222C11.9661 32.6202 11.9831 32.7502 12.1451 32.7502H14.8431C14.9731 32.7502 15.0531 32.7012 15.1351 32.5712C16.1751 30.4262 17.2481 28.0542 18.2231 25.8762H18.2551C19.305 28.1081 20.3667 30.3345 21.4401 32.5552C21.5211 32.7172 21.6031 32.7662 21.7811 32.7662H24.6091C24.7391 32.7662 24.7881 32.6362 24.7061 32.5062ZM25.6981 26.3152C25.6981 22.5292 28.1351 19.5712 32.1321 19.5712C32.4741 19.5712 32.6521 19.5712 32.9781 19.6042V15.3792C32.9781 15.2812 33.0581 15.2162 33.1401 15.2162H35.7561C35.8861 15.2162 35.9191 15.2652 35.9191 15.3462V30.2002C35.9191 30.6382 35.9191 31.1902 36.0001 31.7922C36.0001 31.9062 36.0001 31.9222 35.9031 31.9712C34.6037 32.5906 33.1825 32.9124 31.7431 32.9132C28.2161 32.9132 25.6981 30.7352 25.6981 26.3152ZM32.9781 22.1552C32.7341 22.0412 32.4251 21.9922 32.0351 21.9922C29.9881 21.9922 28.6231 23.5692 28.6231 26.1852C28.6231 29.1752 30.0201 30.3772 31.8401 30.3772C32.2301 30.3772 32.6531 30.3292 32.9611 30.1992V22.1552H32.9781Z" fill="#FED7F0"/>
</g>
<defs>
<radialGradient id="paint0_radial_338_557" cx="0" cy="0" r="1" gradientUnits="userSpaceOnUse" gradientTransform="translate(19.6214 16.7899) scale(28.1648)">
<stop stop-color="#0E0E17" stop-opacity="0.85"/>
<stop offset="0.767" stop-color="#0E0E17"/>
</radialGradient>
<clipPath id="clip0_338_557">
<rect width="48" height="48" fill="white"/>
</clipPath>
</defs>
</svg>
